<?xml version="1.0" encoding="UTF-8" standalone="no"?>
<!DOCTYPE svg PUBLIC "-//W3C//DTD SVG 1.1//EN"
 "http://www.w3.org/Graphics/SVG/1.1/DTD/svg11.dtd">
<!-- Generated by graphviz version 2.43.0 (0)
 -->
<!-- Title: %3 Pages: 1 -->
<svg width="742pt" height="1052pt"
 viewBox="0.00 0.00 741.94 1052.00" xmlns="http://www.w3.org/2000/svg" xmlns:xlink="http://www.w3.org/1999/xlink">
<g id="graph0" class="graph" transform="scale(1 1) rotate(0) translate(4 1048)">
<title>%3</title>
<polygon fill="white" stroke="transparent" points="-4,4 -4,-1048 737.94,-1048 737.94,4 -4,4"/>
<!-- init_act_runner_config -->
<g id="node1" class="node">
<title>init_act_runner_config</title>
<ellipse fill="none" stroke="black" cx="343.29" cy="-378" rx="110.48" ry="18"/>
<text text-anchor="middle" x="343.29" y="-374.3" font-family="Times,serif" font-size="14.00">init&#45;act_runner&#45;config</text>
</g>
<!-- init_config -->
<g id="node2" class="node">
<title>init_config</title>
<ellipse fill="none" stroke="black" cx="481.29" cy="-306" rx="57.39" ry="18"/>
<text text-anchor="middle" x="481.29" y="-302.3" font-family="Times,serif" font-size="14.00">init&#45;config</text>
</g>
<!-- init_act_runner_config&#45;&gt;init_config -->
<g id="edge1" class="edge">
<title>init_act_runner_config&#45;&gt;init_config</title>
<path fill="none" stroke="black" d="M375.3,-360.76C395.55,-350.49 421.84,-337.16 443.17,-326.34"/>
<polygon fill="black" stroke="black" points="444.94,-329.36 452.28,-321.72 441.78,-323.12 444.94,-329.36"/>
</g>
<!-- init_os_end -->
<g id="node5" class="node">
<title>init_os_end</title>
<ellipse fill="none" stroke="black" cx="481.29" cy="-234" rx="59.59" ry="18"/>
<text text-anchor="middle" x="481.29" y="-230.3" font-family="Times,serif" font-size="14.00">init&#45;os&#45;end</text>
</g>
<!-- init_config&#45;&gt;init_os_end -->
<g id="edge3" class="edge">
<title>init_config&#45;&gt;init_os_end</title>
<path fill="none" stroke="black" d="M481.29,-287.7C481.29,-279.98 481.29,-270.71 481.29,-262.11"/>
<polygon fill="black" stroke="black" points="484.79,-262.1 481.29,-252.1 477.79,-262.1 484.79,-262.1"/>
</g>
<!-- init_adduser -->
<g id="node3" class="node">
<title>init_adduser</title>
<ellipse fill="none" stroke="black" cx="421.29" cy="-90" rx="66.89" ry="18"/>
<text text-anchor="middle" x="421.29" y="-86.3" font-family="Times,serif" font-size="14.00">init&#45;adduser</text>
</g>
<!-- init_migrations -->
<g id="node4" class="node">
<title>init_migrations</title>
<ellipse fill="none" stroke="black" cx="421.29" cy="-18" rx="79.09" ry="18"/>
<text text-anchor="middle" x="421.29" y="-14.3" font-family="Times,serif" font-size="14.00">init&#45;migrations</text>
</g>
<!-- init_adduser&#45;&gt;init_migrations -->
<g id="edge2" class="edge">
<title>init_adduser&#45;&gt;init_migrations</title>
<path fill="none" stroke="black" d="M421.29,-71.7C421.29,-63.98 421.29,-54.71 421.29,-46.11"/>
<polygon fill="black" stroke="black" points="424.79,-46.1 421.29,-36.1 417.79,-46.1 424.79,-46.1"/>
</g>
<!-- init_os_end&#45;&gt;init_adduser -->
<g id="edge16" class="edge">
<title>init_os_end&#45;&gt;init_adduser</title>
<path fill="none" stroke="black" d="M479.92,-215.89C477.93,-197.42 473.2,-167.5 462.29,-144 457.67,-134.03 450.87,-124.2 444.13,-115.76"/>
<polygon fill="black" stroke="black" points="446.6,-113.26 437.5,-107.83 441.24,-117.75 446.6,-113.26"/>
</g>
<!-- init_device_perms -->
<g id="node10" class="node">
<title>init_device_perms</title>
<ellipse fill="none" stroke="black" cx="362.29" cy="-162" rx="90.98" ry="18"/>
<text text-anchor="middle" x="362.29" y="-158.3" font-family="Times,serif" font-size="14.00">init&#45;device&#45;perms</text>
</g>
<!-- init_os_end&#45;&gt;init_device_perms -->
<g id="edge17" class="edge">
<title>init_os_end&#45;&gt;init_device_perms</title>
<path fill="none" stroke="black" d="M455.18,-217.64C438.6,-207.88 416.9,-195.12 398.65,-184.39"/>
<polygon fill="black" stroke="black" points="400.4,-181.35 390,-179.3 396.85,-187.39 400.4,-181.35"/>
</g>
<!-- init_envfile -->
<g id="node11" class="node">
<title>init_envfile</title>
<ellipse fill="none" stroke="black" cx="569.29" cy="-162" rx="59.59" ry="18"/>
<text text-anchor="middle" x="569.29" y="-158.3" font-family="Times,serif" font-size="14.00">init&#45;envfile</text>
</g>
<!-- init_os_end&#45;&gt;init_envfile -->
<g id="edge18" class="edge">
<title>init_os_end&#45;&gt;init_envfile</title>
<path fill="none" stroke="black" d="M501.7,-216.76C513.37,-207.49 528.17,-195.71 540.94,-185.55"/>
<polygon fill="black" stroke="black" points="543.35,-188.11 548.99,-179.15 538.99,-182.63 543.35,-188.11"/>
</g>
<!-- init_config_end -->
<g id="node6" class="node">
<title>init_config_end</title>
<ellipse fill="none" stroke="black" cx="481.29" cy="-450" rx="77.19" ry="18"/>
<text text-anchor="middle" x="481.29" y="-446.3" font-family="Times,serif" font-size="14.00">init&#45;config&#45;end</text>
</g>
<!-- init_config_end&#45;&gt;init_act_runner_config -->
<g id="edge4" class="edge">
<title>init_config_end&#45;&gt;init_act_runner_config</title>
<path fill="none" stroke="black" d="M450.67,-433.46C431.3,-423.64 406.02,-410.82 384.85,-400.08"/>
<polygon fill="black" stroke="black" points="386.26,-396.87 375.76,-395.47 383.09,-403.11 386.26,-396.87"/>
</g>
<!-- init_config_end&#45;&gt;init_config -->
<g id="edge5" class="edge">
<title>init_config_end&#45;&gt;init_config</title>
<path fill="none" stroke="black" d="M481.29,-431.87C481.29,-407.67 481.29,-363.21 481.29,-334.39"/>
<polygon fill="black" stroke="black" points="484.79,-334.19 481.29,-324.19 477.79,-334.19 484.79,-334.19"/>
</g>
<!-- init_crontab_config -->
<g id="node7" class="node">
<title>init_crontab_config</title>
<ellipse fill="none" stroke="black" cx="605.29" cy="-378" rx="95.58" ry="18"/>
<text text-anchor="middle" x="605.29" y="-374.3" font-family="Times,serif" font-size="14.00">init&#45;crontab&#45;config</text>
</g>
<!-- init_config_end&#45;&gt;init_crontab_config -->
<g id="edge6" class="edge">
<title>init_config_end&#45;&gt;init_crontab_config</title>
<path fill="none" stroke="black" d="M509.43,-433.12C526.62,-423.41 548.83,-410.87 567.54,-400.31"/>
<polygon fill="black" stroke="black" points="569.42,-403.27 576.41,-395.31 565.98,-397.18 569.42,-403.27"/>
</g>
<!-- init_crontab_config&#45;&gt;init_config -->
<g id="edge7" class="edge">
<title>init_crontab_config&#45;&gt;init_config</title>
<path fill="none" stroke="black" d="M576.53,-360.76C558.83,-350.77 535.98,-337.87 517.11,-327.22"/>
<polygon fill="black" stroke="black" points="518.63,-324.06 508.2,-322.19 515.19,-330.15 518.63,-324.06"/>
</g>
<!-- init_custom_files -->
<g id="node8" class="node">
<title>init_custom_files</title>
<ellipse fill="none" stroke="black" cx="481.29" cy="-810" rx="85.29" ry="18"/>
<text text-anchor="middle" x="481.29" y="-806.3" font-family="Times,serif" font-size="14.00">init&#45;custom&#45;files</text>
</g>
<!-- init_mods_end -->
<g id="node9" class="node">
<title>init_mods_end</title>
<ellipse fill="none" stroke="black" cx="481.29" cy="-738" rx="74.19" ry="18"/>
<text text-anchor="middle" x="481.29" y="-734.3" font-family="Times,serif" font-size="14.00">init&#45;mods&#45;end</text>
</g>
<!-- init_custom_files&#45;&gt;init_mods_end -->
<g id="edge8" class="edge">
<title>init_custom_files&#45;&gt;init_mods_end</title>
<path fill="none" stroke="black" d="M481.29,-791.7C481.29,-783.98 481.29,-774.71 481.29,-766.11"/>
<polygon fill="black" stroke="black" points="484.79,-766.1 481.29,-756.1 477.79,-766.1 484.79,-766.1"/>
</g>
<!-- init_mods_package_install -->
<g id="node16" class="node">
<title>init_mods_package_install</title>
<ellipse fill="none" stroke="black" cx="481.29" cy="-666" rx="126.98" ry="18"/>
<text text-anchor="middle" x="481.29" y="-662.3" font-family="Times,serif" font-size="14.00">init&#45;mods&#45;package&#45;install</text>
</g>
<!-- init_mods_end&#45;&gt;init_mods_package_install -->
<g id="edge13" class="edge">
<title>init_mods_end&#45;&gt;init_mods_package_install</title>
<path fill="none" stroke="black" d="M481.29,-719.7C481.29,-711.98 481.29,-702.71 481.29,-694.11"/>
<polygon fill="black" stroke="black" points="484.79,-694.1 481.29,-684.1 477.79,-694.1 484.79,-694.1"/>
</g>
<!-- init_device_perms&#45;&gt;init_adduser -->
<g id="edge9" class="edge">
<title>init_device_perms&#45;&gt;init_adduser</title>
<path fill="none" stroke="black" d="M376.58,-144.05C383.75,-135.54 392.58,-125.07 400.49,-115.68"/>
<polygon fill="black" stroke="black" points="403.37,-117.69 407.14,-107.79 398.02,-113.18 403.37,-117.69"/>
</g>
<!-- init_mod_universal_docker_in_docker_add_package -->
<g id="node12" class="node">
<title>init_mod_universal_docker_in_docker_add_package</title>
<ellipse fill="none" stroke="black" cx="349.29" cy="-594" rx="235.86" ry="18"/>
<text text-anchor="middle" x="349.29" y="-590.3" font-family="Times,serif" font-size="14.00">init&#45;mod&#45;universal&#45;docker&#45;in&#45;docker&#45;add&#45;package</text>
</g>
<!-- init_mods -->
<g id="node13" class="node">
<title>init_mods</title>
<ellipse fill="none" stroke="black" cx="481.29" cy="-522" rx="53.89" ry="18"/>
<text text-anchor="middle" x="481.29" y="-518.3" font-family="Times,serif" font-size="14.00">init&#45;mods</text>
</g>
<!-- init_mod_universal_docker_in_docker_add_package&#45;&gt;init_mods -->
<g id="edge10" class="edge">
<title>init_mod_universal_docker_in_docker_add_package&#45;&gt;init_mods</title>
<path fill="none" stroke="black" d="M381.25,-576.05C400.35,-565.93 424.69,-553.02 444.58,-542.47"/>
<polygon fill="black" stroke="black" points="446.46,-545.43 453.66,-537.66 443.18,-539.25 446.46,-545.43"/>
</g>
<!-- init_mods&#45;&gt;init_config_end -->
<g id="edge12" class="edge">
<title>init_mods&#45;&gt;init_config_end</title>
<path fill="none" stroke="black" d="M481.29,-503.7C481.29,-495.98 481.29,-486.71 481.29,-478.11"/>
<polygon fill="black" stroke="black" points="484.79,-478.1 481.29,-468.1 477.79,-478.1 484.79,-478.1"/>
</g>
<!-- init_mod_universal_docker_in_docker_qemu -->
<g id="node14" class="node">
<title>init_mod_universal_docker_in_docker_qemu</title>
<ellipse fill="none" stroke="black" cx="380.29" cy="-1026" rx="204.16" ry="18"/>
<text text-anchor="middle" x="380.29" y="-1022.3" font-family="Times,serif" font-size="14.00">init&#45;mod&#45;universal&#45;docker&#45;in&#45;docker&#45;qemu</text>
</g>
<!-- svc_mod_universal_docker_in_docker -->
<g id="node15" class="node">
<title>svc_mod_universal_docker_in_docker</title>
<ellipse fill="none" stroke="black" cx="380.29" cy="-954" rx="174.67" ry="18"/>
<text text-anchor="middle" x="380.29" y="-950.3" font-family="Times,serif" font-size="14.00">svc&#45;mod&#45;universal&#45;docker&#45;in&#45;docker</text>
</g>
<!-- init_mod_universal_docker_in_docker_qemu&#45;&gt;svc_mod_universal_docker_in_docker -->
<g id="edge11" class="edge">
<title>init_mod_universal_docker_in_docker_qemu&#45;&gt;svc_mod_universal_docker_in_docker</title>
<path fill="none" stroke="black" d="M380.29,-1007.7C380.29,-999.98 380.29,-990.71 380.29,-982.11"/>
<polygon fill="black" stroke="black" points="383.79,-982.1 380.29,-972.1 376.79,-982.1 383.79,-982.1"/>
</g>
<!-- init_services -->
<g id="node17" class="node">
<title>init_services</title>
<ellipse fill="none" stroke="black" cx="481.29" cy="-882" rx="67.69" ry="18"/>
<text text-anchor="middle" x="481.29" y="-878.3" font-family="Times,serif" font-size="14.00">init&#45;services</text>
</g>
<!-- svc_mod_universal_docker_in_docker&#45;&gt;init_services -->
<g id="edge25" class="edge">
<title>svc_mod_universal_docker_in_docker&#45;&gt;init_services</title>
<path fill="none" stroke="black" d="M404.74,-936.05C418.31,-926.65 435.33,-914.85 449.88,-904.77"/>
<polygon fill="black" stroke="black" points="451.88,-907.64 458.11,-899.07 447.9,-901.89 451.88,-907.64"/>
</g>
<!-- init_mods_package_install&#45;&gt;init_mod_universal_docker_in_docker_add_package -->
<g id="edge14" class="edge">
<title>init_mods_package_install&#45;&gt;init_mod_universal_docker_in_docker_add_package</title>
<path fill="none" stroke="black" d="M450.01,-648.41C432.11,-638.92 409.44,-626.9 390.15,-616.67"/>
<polygon fill="black" stroke="black" points="391.74,-613.55 381.27,-611.96 388.46,-619.73 391.74,-613.55"/>
</g>
<!-- init_mods_package_install&#45;&gt;init_mods -->
<g id="edge15" class="edge">
<title>init_mods_package_install&#45;&gt;init_mods</title>
<path fill="none" stroke="black" d="M543.39,-650.2C563.08,-642.25 582.73,-630.2 594.29,-612 602.87,-598.5 602.87,-589.5 594.29,-576 581.33,-555.61 558.23,-542.93 536.27,-535.11"/>
<polygon fill="black" stroke="black" points="537.23,-531.74 526.64,-531.94 535.05,-538.39 537.23,-531.74"/>
</g>
<!-- init_services&#45;&gt;init_custom_files -->
<g id="edge19" class="edge">
<title>init_services&#45;&gt;init_custom_files</title>
<path fill="none" stroke="black" d="M481.29,-863.7C481.29,-855.98 481.29,-846.71 481.29,-838.11"/>
<polygon fill="black" stroke="black" points="484.79,-838.1 481.29,-828.1 477.79,-838.1 484.79,-838.1"/>
</g>
<!-- svc_act_runner -->
<g id="node18" class="node">
<title>svc_act_runner</title>
<ellipse fill="none" stroke="black" cx="79.29" cy="-1026" rx="79.09" ry="18"/>
<text text-anchor="middle" x="79.29" y="-1022.3" font-family="Times,serif" font-size="14.00">svc&#45;act_runner</text>
</g>
<!-- svc_act_runner&#45;&gt;svc_mod_universal_docker_in_docker -->
<g id="edge21" class="edge">
<title>svc_act_runner&#45;&gt;svc_mod_universal_docker_in_docker</title>
<path fill="none" stroke="black" d="M132.76,-1012.57C180.15,-1001.54 249.93,-985.32 303.32,-972.9"/>
<polygon fill="black" stroke="black" points="304.15,-976.3 313.1,-970.63 302.56,-969.48 304.15,-976.3"/>
</g>
<!-- svc_act_runner&#45;&gt;init_services -->
<g id="edge20" class="edge">
<title>svc_act_runner&#45;&gt;init_services</title>
<path fill="none" stroke="black" d="M95.85,-1008.29C117.14,-987.85 156.16,-953.78 196.29,-936 263.39,-906.27 346.51,-893.21 405.64,-887.48"/>
<polygon fill="black" stroke="black" points="406.01,-890.96 415.65,-886.56 405.37,-883.99 406.01,-890.96"/>
</g>
<!-- svc_cron -->
<g id="node19" class="node">
<title>svc_cron</title>
<ellipse fill="none" stroke="black" cx="660.29" cy="-954" rx="49.29" ry="18"/>
<text text-anchor="middle" x="660.29" y="-950.3" font-family="Times,serif" font-size="14.00">svc&#45;cron</text>
</g>
<!-- svc_cron&#45;&gt;init_services -->
<g id="edge22" class="edge">
<title>svc_cron&#45;&gt;init_services</title>
<path fill="none" stroke="black" d="M627.88,-940.32C599.76,-929.33 558.73,-913.28 527.23,-900.96"/>
<polygon fill="black" stroke="black" points="528.37,-897.65 517.78,-897.27 525.82,-904.17 528.37,-897.65"/>
</g>
<!-- svc_docuum -->
<g id="node20" class="node">
<title>svc_docuum</title>
<ellipse fill="none" stroke="black" cx="668.29" cy="-1026" rx="65.79" ry="18"/>
<text text-anchor="middle" x="668.29" y="-1022.3" font-family="Times,serif" font-size="14.00">svc&#45;docuum</text>
</g>
<!-- svc_docuum&#45;&gt;svc_mod_universal_docker_in_docker -->
<g id="edge24" class="edge">
<title>svc_docuum&#45;&gt;svc_mod_universal_docker_in_docker</title>
<path fill="none" stroke="black" d="M620.74,-1013.44C575.71,-1002.5 507.4,-985.89 455.08,-973.18"/>
<polygon fill="black" stroke="black" points="455.72,-969.73 445.17,-970.77 454.06,-976.53 455.72,-969.73"/>
</g>
<!-- svc_docuum&#45;&gt;init_services -->
<g id="edge23" class="edge">
<title>svc_docuum&#45;&gt;init_services</title>
<path fill="none" stroke="black" d="M647.13,-1008.72C634,-998.45 616.91,-984.75 602.29,-972 584.76,-956.7 582.62,-950.32 564.29,-936 549.68,-924.58 532.55,-913.32 517.65,-904.14"/>
<polygon fill="black" stroke="black" points="519.08,-900.91 508.71,-898.7 515.44,-906.89 519.08,-900.91"/>
</g>
</g>
</svg>
